HIERARCHY
ROOT Hips
{
 OFFSET 0.000000 0.000000 0.000000
 CHANNELS 6 Xposition Yposition Zposition Yrotation Xrotation Zrotation
 JOINT Chest
 {
  OFFSET 0.000000 10.354800 0.006500
  CHANNELS 3 Yrotation Xrotation Zrotation
  JOINT Chest2
  {
   OFFSET 0.000000 10.435800 -0.013200
   CHANNELS 3 Yrotation Xrotation Zrotation
   JOINT Chest3
   {
    OFFSET 0.000000 10.393700 0.000000
    CHANNELS 3 Yrotation Xrotation Zrotation
    JOINT Chest4
    {
     OFFSET 0.000000 10.383100 0.000000
     CHANNELS 3 Yrotation Xrotation Zrotation
     JOINT Neck
     {
      OFFSET 0.000000 15.694000 0.000000
      CHANNELS 3 Yrotation Xrotation Zrotation
      JOINT Head
      {
       OFFSET 0.000000 9.711000 -0.028000
       CHANNELS 3 Yrotation Xrotation Zrotation
       End Site
       {
        OFFSET 0.000000 18.578700 -0.014800
       }
      }
     }
     JOINT RightCollar
     {
      OFFSET -3.157200 10.367500 0.000000
      CHANNELS 3 Yrotation Xrotation Zrotation
      JOINT RightShoulder
      {
       OFFSET -14.482500 0.000000 0.000000
       CHANNELS 3 Yrotation Xrotation Zrotation
       JOINT RightElbow
       {
        OFFSET 0.000000 -31.707800 0.000000
        CHANNELS 3 Yrotation Xrotation Zrotation
        JOINT RightWrist
        {
         OFFSET 0.000000 -25.659300 0.000000
         CHANNELS 3 Yrotation Xrotation Zrotation
         End Site
         {
          OFFSET 0.000000 -18.994300 0.000000
         }
        }
       }
      }
     }
     JOINT LeftCollar
     {
      OFFSET 3.157200 10.367500 0.000000
      CHANNELS 3 Yrotation Xrotation Zrotation
      JOINT LeftShoulder
      {
       OFFSET 14.482500 0.000000 0.000000
       CHANNELS 3 Yrotation Xrotation Zrotation
       JOINT LeftElbow
       {
        OFFSET 0.000000 -31.707800 0.000000
        CHANNELS 3 Yrotation Xrotation Zrotation
        JOINT LeftWrist
        {
         OFFSET 0.000000 -25.659300 0.000000
         CHANNELS 3 Yrotation Xrotation Zrotation
         End Site
         {
          OFFSET 0.000000 -18.994300 0.000000
         }
        }
       }
      }
     }
    }
   }
  }
 }
 JOINT RightHip
 {
  OFFSET -8.365600 -0.032100 -0.003200
  CHANNELS 3 Yrotation Xrotation Zrotation
  JOINT RightKnee
  {
   OFFSET 0.000000 -43.980000 0.003100
   CHANNELS 3 Yrotation Xrotation Zrotation
   JOINT RightAnkle
   {
    OFFSET 0.000000 -42.882800 0.005200
    CHANNELS 3 Yrotation Xrotation Zrotation
    JOINT RightToe
    {
     OFFSET 0.000000 -4.915500 10.826300
     CHANNELS 3 Yrotation Xrotation Zrotation
     End Site
     {
      OFFSET 0.000000 -1.517500 6.175900
     }
    }
   }
  }
 }
 JOINT LeftHip
 {
  OFFSET 8.365600 -0.032100 -0.003200
  CHANNELS 3 Yrotation Xrotation Zrotation
  JOINT LeftKnee
  {
   OFFSET 0.000000 -43.980000 0.003100
   CHANNELS 3 Yrotation Xrotation Zrotation
   JOINT LeftAnkle
   {
    OFFSET 0.000000 -42.882800 0.005200
    CHANNELS 3 Yrotation Xrotation Zrotation
    JOINT LeftToe
    {
     OFFSET 0.000000 -4.915500 10.826300
     CHANNELS 3 Yrotation Xrotation Zrotation
     End Site
     {
      OFFSET 0.000000 -1.517500 6.175900
     }
    }
   }
  }
 }
}
MOTION
Frames: 12
Frame Time: 0.008333
-7.474337 126.708361 33.220588 175.774451 -23.306461 -3.842834 -2.016920 13.567990 3.498077 -0.206743 1.215026 0.331025 -0.344925 1.958432 0.533183 -1.836976 12.238512 3.172476 -1.675130 20.457619 -2.673479 -1.185191 -4.040925 -2.467395 1.764563 6.234183 -4.903764 0.507383 -0.503783 -3.293179 -106.487968 -72.411931 132.056835 -16.418992 -3.436304 -26.084167 -1.587017 8.845761 0.591072 4.118458 -3.846097 0.896233 84.655411 -74.076790 -115.056458 18.021831 8.878405 23.456218 14.293645 -58.264182 -3.043752 -131.520895 81.989497 -124.874136 4.570814 -15.906923 -12.279871 -0.003203 -0.002189 -0.001454 -16.417934 -57.684481 9.402454 98.971449 82.397785 92.885852 -10.391604 -9.808137 2.275208 0.006477 -0.002206 0.002941
-7.472643 126.704628 33.217753 175.750701 -23.247333 -3.823096 -2.000341 13.552416 3.500767 -0.204746 1.191692 0.325913 -0.344197 1.958628 0.533825 -1.825425 12.246065 3.180150 -1.680511 20.464097 -2.677670 -1.180903 -3.975090 -2.474852 1.719281 6.291026 -4.943963 0.500582 -0.461568 -3.093643 -106.144871 -72.417467 131.754743 -16.441831 -3.489957 -26.251555 -1.424060 8.962042 0.621832 4.173491 -3.658669 0.379807 84.610652 -74.113148 -114.828592 17.958723 9.065594 23.266719 14.353671 -58.320354 -3.076737 -131.500606 81.981408 -124.849859 4.572325 -15.897022 -12.280128 -0.006111 -0.002353 -0.002775 -16.429737 -57.737916 9.444626 99.066123 82.409751 92.965178 -10.406425 -9.818113 2.282586 0.004137 -0.003004 0.001878
-7.471509 126.700867 33.214835 175.733397 -23.189490 -3.802553 -1.988614 13.536562 3.500488 -0.204139 1.169592 0.320602 -0.341368 1.978694 0.539792 -1.826307 12.213819 3.173983 -1.682156 20.466439 -2.678740 -1.168062 -3.915731 -2.476048 1.683631 6.368785 -4.973941 0.512801 -0.434312 -2.901768 -105.851563 -72.421368 131.483170 -16.457281 -3.537591 -26.398853 -1.257449 9.092840 0.657332 4.263546 -3.481416 -0.140169 84.576621 -74.142430 -114.615793 17.895367 9.267204 23.067600 14.411032 -58.376048 -3.123059 -131.539917 81.978290 -124.887148 4.613706 -15.866444 -12.287025 -0.008600 0.000996 -0.003905 -16.429458 -57.794394 9.463468 99.166044 82.431240 93.057938 -10.405388 -9.828200 2.290584 -0.001913 -0.005124 -0.000868
-7.469262 126.698283 33.209337 175.721785 -23.148981 -3.788973 -1.957617 13.566839 3.520239 -0.197355 1.177493 0.323901 -0.355527 1.936284 0.528714 -1.812225 12.208321 3.179116 -1.690395 20.476539 -2.680913 -1.170502 -3.906603 -2.473039 1.626344 6.424268 -5.011174 0.542020 -0.423670 -2.716304 -105.612198 -72.428941 131.248467 -16.470450 -3.586647 -26.520654 -1.121997 9.189882 0.684175 4.383855 -3.313191 -0.661546 84.542550 -74.160509 -114.412187 17.843325 9.463722 22.886260 14.446856 -58.412789 -3.137567 -131.573572 81.974156 -124.916126 4.603905 -15.848309 -12.303940 -0.010580 0.005033 -0.004804 -16.442944 -57.826237 9.498667 99.298647 82.440197 93.175955 -10.435193 -9.850177 2.300259 -0.005334 -0.003626 -0.002422
-7.466601 126.695376 33.204670 175.725392 -23.104427 -3.783496 -1.940879 13.572965 3.536695 -0.199413 1.166071 0.321704 -0.354802 1.934017 0.526984 -1.754343 12.237714 3.209555 -1.739819 20.448712 -2.692371 -1.177382 -3.900545 -2.468178 1.529211 6.445314 -5.064003 0.578506 -0.426236 -2.537543 -105.433447 -72.442557 131.061821 -16.483191 -3.641202 -26.619102 -1.043145 9.240390 0.693266 4.517558 -3.154330 -1.176142 84.515752 -74.162751 -114.216936 17.811871 9.637483 22.749059 14.456357 -58.453752 -3.124596 -131.746070 81.984749 -125.081243 4.540516 -15.864750 -12.322387 -0.000001 0.002983 -0.000001 -16.478678 -57.861226 9.540309 99.316457 82.453268 93.181701 -10.448883 -9.856602 2.301638 -0.005531 -0.003037 -0.002511
-7.464216 126.692671 33.199469 175.725687 -23.064861 -3.774430 -1.934341 13.553517 3.538541 -0.192302 1.175678 0.325562 -0.352845 1.942336 0.531510 -1.734319 12.232541 3.216622 -1.751192 20.455310 -2.689573 -1.178629 -3.897436 -2.465189 1.481930 6.500071 -5.104064 0.614355 -0.437590 -2.369863 -105.293508 -72.459269 130.906055 -16.491098 -3.705090 -26.698615 -0.937111 9.318488 0.706661 4.656108 -3.004323 -1.675020 84.520299 -74.145758 -114.054009 17.808827 9.773771 22.680795 14.465865 -58.491104 -3.118977 -131.720532 81.974298 -125.061534 4.524671 -15.869747 -12.329898 0.000788 0.000772 0.000358 -16.507033 -57.891624 9.578665 99.356281 82.468542 93.202420 -10.440773 -9.864145 2.303639 -0.004701 -0.001988 -0.002134
-7.460492 126.691467 33.191135 175.722924 -23.046993 -3.769768 -1.920064 13.555550 3.545784 -0.181107 1.195469 0.334256 -0.348304 1.940635 0.531089 -1.721002 12.227126 3.224635 -1.717950 20.499647 -2.670004 -1.224394 -3.933443 -2.458318 1.440919 6.551339 -5.143571 0.647017 -0.455299 -2.217527 -105.176224 -72.474350 130.772702 -16.493696 -3.774693 -26.759939 -0.844692 9.387203 0.714154 4.796355 -2.859364 -2.154446 84.580868 -74.112658 -113.952116 17.841363 9.860135 22.698471 14.464252 -58.506781 -3.103053 -131.732713 81.972050 -125.078935 4.536731 -15.880689 -12.349194 -0.000100 -0.003893 -0.000045 -16.513738 -57.906277 9.591947 99.459537 82.471324 93.306169 -10.435047 -9.877624 2.301102 -0.006245 -0.004475 -0.002835
-7.459682 126.687947 33.187819 175.723642 -22.999190 -3.752005 -1.880071 13.586427 3.571923 -0.194877 1.162633 0.322657 -0.332102 1.959254 0.540166 -1.726511 12.190492 3.219336 -1.724287 20.502869 -2.662680 -1.232833 -3.929861 -2.449065 1.406369 6.599177 -5.181758 0.673214 -0.474500 -2.083376 -105.086920 -72.484625 130.674289 -16.497000 -3.845251 -26.806470 -0.763077 9.448283 0.717782 4.933138 -2.718806 -2.611266 84.704581 -74.065505 -113.918546 17.909221 9.895261 22.806969 14.495949 -58.547879 -3.136137 -131.798649 81.975379 -125.144541 4.512142 -15.896194 -12.363581 -0.001924 -0.003769 -0.000873 -16.530343 -57.948687 9.609965 99.454393 82.480865 93.289178 -10.428102 -9.881224 2.301414 -0.005820 -0.003319 -0.002642
-7.459766 126.684718 33.184006 175.726529 -22.956050 -3.729616 -1.867800 13.579124 3.569559 -0.193147 1.161503 0.322813 -0.347827 1.932019 0.530137 -1.689131 12.211226 3.233873 -1.730205 20.506423 -2.653912 -1.241171 -3.925997 -2.438364 1.381068 6.637619 -5.216695 0.680650 -0.501090 -1.986268 -104.960878 -72.475371 130.556519 -16.499912 -3.913239 -26.846894 -0.686613 9.502597 0.721052 5.062730 -2.584256 -3.042326 84.887673 -74.006981 -113.952231 18.003598 9.884329 23.000939 14.540399 -58.582482 -3.190399 -131.884999 81.973657 -125.230594 4.512904 -15.912886 -12.377625 -0.004456 -0.003386 -0.002023 -16.526371 -57.991721 9.599342 99.459339 82.487399 93.292239 -10.416620 -9.884856 2.298711 -0.007116 -0.003587 -0.003231
-7.459166 126.681617 33.180550 175.726536 -22.913917 -3.709697 -1.863891 13.554298 3.560157 -0.179655 1.179533 0.330362 -0.346765 1.928013 0.529816 -1.667995 12.209474 3.241186 -1.736713 20.508660 -2.644688 -1.250248 -3.923631 -2.427013 1.361685 6.658406 -5.249597 0.709824 -0.510046 -1.894917 -104.917350 -72.473349 130.502837 -16.455370 -3.964043 -26.880490 -0.615448 9.545295 0.723490 5.186986 -2.453885 -3.444256 85.117606 -73.942735 -114.044564 18.114901 9.831857 23.266246 14.583518 -58.617495 -3.239982 -131.876527 81.963448 -125.221880 4.516477 -15.919000 -12.392922 -0.008173 -0.003200 -0.003711 -16.521784 -58.034218 9.591996 99.457566 82.495127 93.292373 -10.394047 -9.886859 2.291361 -0.006419 -0.004237 -0.002914
-7.457506 126.678726 33.177426 175.720226 -22.873483 -3.692862 -1.852871 13.531507 3.556372 -0.161756 1.197577 0.338755 -0.349429 1.926470 0.529391 -1.643609 12.207231 3.249244 -1.745257 20.508700 -2.634420 -1.276494 -3.940813 -2.423040 1.345675 6.661060 -5.282479 0.763135 -0.502136 -1.804310 -105.060695 -72.501434 130.587383 -16.511659 -4.007386 -26.896254 -0.555212 9.574851 0.725890 5.305707 -2.326883 -3.816438 85.388012 -73.874995 -114.183511 18.234200 9.744088 23.589448 14.621351 -58.651860 -3.272143 -131.801922 81.947737 -125.151053 4.522773 -15.922272 -12.393488 -0.008456 -0.003033 -0.003839 -16.516028 -58.075985 9.590879 99.469580 82.492296 93.309096 -10.386634 -9.886777 2.285706 -0.007602 -0.005060 -0.003451
-7.455741 126.675976 33.174700 175.723959 -22.832847 -3.680072 -1.831897 13.526950 3.565279 -0.166325 1.187227 0.335678 -0.340377 1.934944 0.533626 -1.637683 12.197001 3.250742 -1.742567 20.516943 -2.621157 -1.302783 -3.958597 -2.417855 1.346651 6.661935 -5.314169 0.808376 -0.505889 -1.743047 -105.123004 -72.507085 130.591738 -16.534794 -4.041418 -26.904852 -0.491346 9.604831 0.735337 5.402356 -2.207582 -4.162416 85.708527 -73.806571 -114.358839 18.350526 9.631094 23.953841 14.656300 -58.686823 -3.309267 -131.715877 81.933336 -125.066368 4.523055 -15.916514 -12.398852 -0.009466 -0.004221 -0.004297 -16.527193 -58.116163 9.594098 99.470134 82.491949 93.315522 -10.374667 -9.890190 2.273181 -0.006452 -0.004448 -0.002929
